<svg width="538" height="750" viewBox="0 0 538 750" fill="#000000" xmlns="http://www.w3.org/2000/svg">
    <path d="M412.432 101.034C446.632 160.534 448.532 232.534 465.832 291.334C483.132 350.234 515.832 395.934 530.032 453.334C544.132 510.634 539.632 579.734 504.032 623.234C468.432 666.634 401.732 684.434 334.032 708.934C266.332 733.534 197.532 764.834 151.732 741.034C105.832 717.234 82.832 638.134 60.232 577.834C37.632 517.534 15.532 475.934 6.03199 430.634C-3.46801 385.234 -0.268009 336.234 12.532 284.734C25.432 233.234 48.032 179.334 88.432 122.834C128.932 66.3338 187.332 7.13377 249.732 1.03377C312.032 -5.16622 378.332 41.6338 412.432 101.034Z"/>
</svg>
