<svg xmlns="http://www.w3.org/2000/svg" width="512" height="512" viewBox="0 0 512 512" fill="none"><style>.a{fill:#000}@media (prefers-color-scheme:dark){.a{fill:#fff}}</style><path fill="#000" d="M386.012 126.175 379.763 114c-50.702 26.046-132.28 50.409-193.962 57.946l1.654 13.584c63.077-7.715 146.583-32.68 198.543-59.355h.014ZM124.883 385.825 131.132 398c50.702-26.046 132.279-50.409 193.962-57.946l-1.655-13.584c-63.077 7.715-146.582 32.68-198.543 59.355h-.013ZM505.602 229.893c-20.921 8.769-39.805 17.811-56.295 26.839l7.356-125.509-13.646-.807-7.89 134.414c-43.442 26.005-65.976 51.189-58.866 68.562 3.282 8.017 11.555 12.038 23.67 12.038 10.815 0 24.695-3.215 40.802-9.671l4.034-1.614 3.596-61.367c16.463-9.411 37.029-19.602 62.532-30.286l-5.279-12.612-.014.013Zm-73.989 94.744c-27.02 10.069-41.118 7.456-42.703 3.584-2.174-5.307 7.493-22.886 45.246-46.88l-2.543 43.296Z" class="a"/><path fill="#000" d="M398.987 260.33c.848 3.173 1.846 6.087 2.871 8.891l12.84-4.719c-3.227-8.769-5.907-18.057-3.255-35.115h-.109s0-.082.014-.124h.123c2.954-21.025-1.778-38.07-12.99-46.756-7.944-6.156-18.132-7.373-27.922-3.311-6.495 2.682-12.197 7.415-16.887 13.694-.848-3.174-1.832-6.088-2.872-8.892l-12.839 4.719c3.227 8.769 5.907 18.057 3.254 35.115h.109s0 .083-.013.11h-.123c-2.954 21.026 1.777 38.07 12.99 46.757 4.854 3.762 10.529 5.676 16.449 5.676 3.775 0 7.658-.779 11.473-2.366 6.495-2.681 12.196-7.414 16.887-13.693v.014Zm-36.441-.424c-6.604-5.117-9.585-16.457-8.204-30.711 1.873-14.555 8.478-32.01 21.427-37.359 5.223-2.161 10.31-1.628 14.33 1.491 6.604 5.116 9.585 16.457 8.204 30.711-1.873 14.555-8.478 32.01-21.427 37.372-5.223 2.162-10.31 1.628-14.33-1.491v-.013ZM280.874 263.298c-8.04-8.016-7.302-20.205-5.278-29.028 2.188-9.534 7.644-17.81 14.563-22.133 3.09-1.929 7.917-3.967 13.386-2.695 3.61.835 6.878 3.023 9.435 6.32l10.789-8.413c-4.512-5.8-10.433-9.685-17.134-11.244-7.835-1.82-16.257-.247-23.723 4.418-10.092 6.306-17.612 17.482-20.648 30.669-3.965 17.236-.793 32.079 8.957 41.791 7.793 7.756 19.198 11.682 33.09 11.682l-18.623 18.591 9.653 9.685 32.721-32.667-6.385-11.504c-18.432 4.323-32.927 2.366-40.803-5.486v.014ZM230.009 248.702c8.04 8.016 7.301 20.205 5.278 29.028-2.188 9.535-7.644 17.811-14.563 22.134-3.09 1.928-7.917 3.953-13.386 2.694-3.61-.834-6.865-3.023-9.435-6.32l-10.789 8.413c4.512 5.801 10.433 9.685 17.133 11.245 2.133.492 4.307.739 6.481.739 5.853 0 11.801-1.751 17.243-5.157 10.091-6.307 17.612-17.483 20.648-30.67 3.965-17.236.793-32.079-8.957-41.791-7.794-7.77-19.212-11.723-33.09-11.682l18.623-18.59-9.653-9.686-32.722 32.667 6.386 11.504c18.432-4.323 32.926-2.366 40.803 5.486v-.014ZM140.334 332.818c6.495-2.682 12.197-7.415 16.887-13.694.847 3.174 1.846 6.087 2.871 8.892l12.826-4.719c-3.227-8.769-5.907-18.057-3.254-35.115h-.11s0-.083.014-.11h.123c2.954-21.026-1.777-38.07-12.99-46.756-7.944-6.156-18.131-7.374-27.921-3.311-6.496 2.681-12.198 7.414-16.888 13.693-.847-3.173-1.845-6.087-2.871-8.892l-12.826 4.72c3.227 8.768 5.907 18.057 3.254 35.115h.11s0 .082-.014.123h-.123c-2.953 21.026 1.778 38.07 12.99 46.757 4.854 3.762 10.529 5.677 16.45 5.677 3.773 0 7.657-.78 11.472-2.367v-.013Zm-27.758-44.842c1.873-14.555 8.478-32.01 21.427-37.372 5.223-2.162 10.31-1.628 14.33 1.491 6.604 5.116 9.585 16.456 8.204 30.71-1.873 14.555-8.477 32.01-21.426 37.359-5.224 2.161-10.311 1.628-14.331-1.491-6.604-5.116-9.585-16.456-8.204-30.711v.014Z" class="a"/><path fill="#000" d="M134.624 178.608c-6.208-15.17-30.315-16.06-64.472-2.38l-4.034 1.614-3.596 61.366c-16.463 9.412-37.028 19.603-62.53 30.287l5.278 12.612c20.921-8.769 39.805-17.811 56.295-26.839l-7.37 125.509 13.646.807 7.89-134.414c43.442-26.005 65.976-51.189 58.865-68.562h.028Zm-57.895 52.064 2.543-43.295c27.02-10.069 41.117-7.456 42.703-3.584 2.175 5.307-7.493 22.886-45.246 46.879Z" class="a"/></svg>