<?xml version="1.0" standalone="no"?>
<!DOCTYPE svg PUBLIC "-//W3C//DTD SVG 20010904//EN"
 "http://www.w3.org/TR/2001/REC-SVG-20010904/DTD/svg10.dtd">
<svg version="1.0" xmlns="http://www.w3.org/2000/svg"
 width="2048.000000pt" height="2048.000000pt" viewBox="0 0 2048.000000 2048.000000"
 preserveAspectRatio="xMidYMid meet">
<metadata>
Created by potrace 1.14, written by Peter Selinger 2001-2017
</metadata>
<g transform="translate(0.000000,2048.000000) scale(0.100000,-0.100000)"
fill="#000000" stroke="none">
<path d="M14440 15143 c-1639 -825 -4271 -1621 -6340 -1919 -173 -25 -315 -46
-316 -47 0 -1 12 -103 27 -227 15 -124 28 -228 29 -232 0 -13 48 -9 300 27
2092 301 4674 1074 6428 1926 l223 108 -100 198 c-55 110 -106 206 -113 214
-11 13 -29 7 -138 -48z"/>
<path d="M16652 12353 c-74 -1253 -136 -2311 -139 -2350 l-6 -73 -126 -76
c-351 -213 -803 -534 -1086 -770 -171 -142 -441 -412 -545 -544 -206 -260
-313 -478 -341 -697 -15 -122 5 -237 62 -352 215 -434 893 -499 1864 -176 234
78 505 183 510 199 2 6 32 488 66 1071 40 703 65 1064 73 1071 25 25 498 276
844 447 384 191 685 330 1086 504 132 56 241 104 243 106 5 6 -175 431 -184
434 -9 3 -382 -156 -643 -274 -381 -173 -843 -400 -1177 -578 l-143 -76 0 31
c0 16 56 989 125 2160 69 1172 125 2146 125 2164 l0 33 -202 11 c-112 7 -219
12 -238 12 l-35 0 -133 -2277z m-223 -3783 c-27 -468 -46 -728 -53 -732 -22
-15 -374 -127 -491 -157 -510 -128 -929 -112 -992 36 -62 149 159 498 538 850
232 216 504 426 839 652 192 128 195 130 198 103 2 -15 -15 -353 -39 -752z"/>
<path d="M4950 13359 c-257 -28 -545 -94 -845 -194 -232 -76 -505 -183 -510
-198 -2 -7 -32 -489 -65 -1072 -42 -722 -65 -1064 -73 -1071 -26 -25 -444
-247 -817 -433 -412 -205 -710 -344 -1113 -517 -132 -56 -241 -104 -243 -106
-4 -4 171 -426 180 -435 9 -9 510 209 903 393 242 113 689 336 921 459 l142
76 0 -34 c0 -18 -56 -989 -125 -2157 -69 -1168 -125 -2140 -125 -2160 l0 -37
235 -13 c130 -7 237 -11 238 -9 2 2 63 1028 136 2279 73 1251 135 2308 138
2348 l6 72 86 52 c382 229 812 533 1126 794 168 140 439 410 545 544 258 325
375 621 340 857 -45 294 -242 477 -590 548 -92 19 -375 27 -490 14z m430 -495
c86 -19 141 -51 165 -96 17 -33 18 -43 8 -103 -40 -234 -341 -603 -793 -971
-248 -202 -781 -576 -789 -553 -8 25 83 1494 93 1502 6 4 92 34 191 66 478
157 874 212 1125 155z"/>
<path d="M14477 12995 c-287 -54 -564 -230 -779 -495 -20 -24 -38 -42 -40 -40
-3 3 -19 53 -36 112 -18 58 -40 124 -50 146 l-17 40 -220 -80 c-121 -44 -221
-81 -222 -82 -1 -1 18 -64 42 -140 54 -165 80 -290 96 -451 14 -141 7 -378
-16 -545 -9 -63 -20 -146 -25 -185 -30 -223 -21 -533 21 -755 81 -420 295
-738 599 -890 145 -72 264 -100 426 -100 265 0 506 96 747 299 71 59 180 174
221 232 8 13 17 21 19 18 2 -2 25 -70 51 -151 26 -82 50 -148 53 -148 11 0
428 153 436 161 5 4 -12 69 -36 145 -111 341 -130 647 -66 1080 26 180 36 501
20 655 -65 617 -360 1036 -816 1159 -106 28 -299 35 -408 15z m288 -480 c214
-56 366 -259 435 -582 27 -125 38 -415 21 -558 -19 -161 -58 -336 -111 -496
-140 -426 -361 -710 -646 -829 -65 -27 -96 -34 -176 -38 -107 -5 -165 5 -241
44 -178 89 -297 289 -354 594 -27 146 -24 475 6 635 62 335 162 607 302 820
64 97 243 277 321 324 158 92 307 121 443 86z"/>
<path d="M11597 12345 c-336 -64 -648 -284 -870 -613 -236 -350 -363 -866
-316 -1290 77 -715 597 -1164 1387 -1199 l134 -6 -326 -326 -326 -326 170
-170 170 -170 572 572 571 571 -110 199 c-97 176 -112 198 -134 197 -13 -1
-91 -14 -174 -29 -179 -33 -499 -45 -651 -26 -178 23 -332 76 -456 157 -283
182 -400 503 -343 937 43 331 170 609 369 810 160 162 338 247 516 247 148 0
268 -50 384 -160 l74 -70 186 145 186 146 -19 27 c-25 35 -145 150 -196 189
-100 77 -231 138 -370 175 -105 27 -317 34 -428 13z"/>
<path d="M8250 11662 l-574 -568 110 -200 c98 -176 114 -199 135 -198 13 1 92
14 174 29 180 33 500 45 651 26 427 -57 688 -263 786 -623 20 -73 23 -106 22
-273 0 -166 -4 -206 -27 -316 -48 -226 -125 -407 -240 -563 -178 -240 -405
-376 -627 -376 -148 0 -268 51 -386 162 l-71 68 -187 -146 -186 -145 19 -27
c26 -35 145 -151 196 -189 313 -235 738 -267 1106 -83 419 209 732 653 843
1192 69 336 58 656 -33 926 -137 410 -468 704 -924 822 -142 36 -316 60 -440
60 l-92 0 328 328 327 327 -168 168 -168 168 -574 -569z"/>
<path d="M5981 10930 c-167 -37 -318 -107 -470 -220 -88 -65 -215 -188 -271
-263 -19 -25 -37 -46 -40 -47 -3 0 -25 63 -49 139 -24 77 -47 145 -51 151 -5
8 -73 -13 -225 -69 -120 -44 -220 -82 -222 -85 -3 -2 7 -37 21 -76 129 -357
154 -698 84 -1161 -29 -193 -32 -600 -5 -754 49 -281 132 -496 258 -665 142
-193 327 -322 546 -382 95 -26 342 -32 433 -10 162 39 304 103 437 194 77 52
260 225 321 302 17 22 33 38 35 35 2 -2 25 -71 51 -152 40 -125 50 -148 64
-142 9 4 109 40 222 82 113 41 206 77 208 78 2 2 -8 35 -22 75 -119 330 -152
674 -101 1055 8 61 20 151 27 200 20 142 16 518 -5 650 -93 567 -359 924 -784
1051 -124 37 -326 43 -462 14z m351 -481 c235 -79 383 -327 428 -714 43 -380
-54 -872 -242 -1225 -178 -336 -431 -539 -693 -557 -144 -10 -259 35 -368 144
-174 172 -258 471 -244 863 7 187 23 298 71 485 140 541 424 917 763 1010 77
21 213 18 285 -6z"/>
<path d="M12265 7730 c-2106 -309 -4635 -1070 -6408 -1928 l-208 -101 32 -63
c17 -35 67 -131 111 -215 l79 -152 217 107 c1672 827 4345 1621 6381 1896 101
14 185 26 186 28 2 2 -46 412 -55 466 -1 7 -105 -4 -335 -38z"/>
</g>
</svg>
